<svg width="16" height="16" viewBox="0 0 16 16" fill="none" xmlns="http://www.w3.org/2000/svg">
<g id="Icon">
<path d="M1.3335 2.99992C1.3335 2.07944 2.07969 1.33325 3.00016 1.33325H4.66683C5.5873 1.33325 6.3335 2.07944 6.3335 2.99992V4.66659C6.3335 5.58706 5.5873 6.33325 4.66683 6.33325H3.00016C2.07969 6.33325 1.3335 5.58706 1.3335 4.66659V2.99992Z" fill="#576CBC"/>
<path d="M9.66683 2.99992C9.66683 2.07944 10.413 1.33325 11.3335 1.33325H13.0002C13.9206 1.33325 14.6668 2.07944 14.6668 2.99992V4.66659C14.6668 5.58706 13.9206 6.33325 13.0002 6.33325H11.3335C10.413 6.33325 9.66683 5.58706 9.66683 4.66659V2.99992Z" fill="#576CBC"/>
<path d="M1.3335 11.3333C1.3335 10.4128 2.07969 9.66658 3.00016 9.66658H4.66683C5.5873 9.66658 6.3335 10.4128 6.3335 11.3333V12.9999C6.3335 13.9204 5.5873 14.6666 4.66683 14.6666H3.00016C2.07969 14.6666 1.3335 13.9204 1.3335 12.9999V11.3333Z" fill="#576CBC"/>
<path d="M9.66683 11.3333C9.66683 10.4128 10.413 9.66658 11.3335 9.66658H13.0002C13.9206 9.66658 14.6668 10.4128 14.6668 11.3333V12.9999C14.6668 13.9204 13.9206 14.6666 13.0002 14.6666H11.3335C10.413 14.6666 9.66683 13.9204 9.66683 12.9999V11.3333Z" fill="#576CBC"/>
<path d="M1.3335 2.99992C1.3335 2.07944 2.07969 1.33325 3.00016 1.33325H4.66683C5.5873 1.33325 6.3335 2.07944 6.3335 2.99992V4.66659C6.3335 5.58706 5.5873 6.33325 4.66683 6.33325H3.00016C2.07969 6.33325 1.3335 5.58706 1.3335 4.66659V2.99992Z" stroke="#576CBC" stroke-linecap="round" stroke-linejoin="round"/>
<path d="M9.66683 2.99992C9.66683 2.07944 10.413 1.33325 11.3335 1.33325H13.0002C13.9206 1.33325 14.6668 2.07944 14.6668 2.99992V4.66659C14.6668 5.58706 13.9206 6.33325 13.0002 6.33325H11.3335C10.413 6.33325 9.66683 5.58706 9.66683 4.66659V2.99992Z" stroke="#576CBC" stroke-linecap="round" stroke-linejoin="round"/>
<path d="M1.3335 11.3333C1.3335 10.4128 2.07969 9.66658 3.00016 9.66658H4.66683C5.5873 9.66658 6.3335 10.4128 6.3335 11.3333V12.9999C6.3335 13.9204 5.5873 14.6666 4.66683 14.6666H3.00016C2.07969 14.6666 1.3335 13.9204 1.3335 12.9999V11.3333Z" stroke="#576CBC" stroke-linecap="round" stroke-linejoin="round"/>
<path d="M9.66683 11.3333C9.66683 10.4128 10.413 9.66658 11.3335 9.66658H13.0002C13.9206 9.66658 14.6668 10.4128 14.6668 11.3333V12.9999C14.6668 13.9204 13.9206 14.6666 13.0002 14.6666H11.3335C10.413 14.6666 9.66683 13.9204 9.66683 12.9999V11.3333Z" stroke="#576CBC" stroke-linecap="round" stroke-linejoin="round"/>
</g>
</svg>
